<?xml version="1.0" encoding="utf-8"?>
<!-- Generator: Adobe Illustrator 16.0.0, SVG Export Plug-In . SVG Version: 6.00 Build 0)  -->
<!DOCTYPE svg PUBLIC "-//W3C//DTD SVG 1.1//EN" "http://www.w3.org/Graphics/SVG/1.1/DTD/svg11.dtd">
<svg version="1.1" id="Calque_1" xmlns="http://www.w3.org/2000/svg" xmlns:xlink="http://www.w3.org/1999/xlink" x="0px" y="0px"
	 width="510px" height="632px" viewBox="0 0 510 632" enable-background="new 0 0 510 632" xml:space="preserve">
<text transform="matrix(1 0 0 1 6.2363 752.916)" display="none" font-family="'Montserrat-Black'" font-size="107.7532">TOUCAN</text>
<path fill-rule="evenodd" clip-rule="evenodd" d="M342.498,218.165c12.335-7.606,21.722-12.886,30.587-18.948
	c52.94-36.262,85.385-85.533,93.115-149.774c4.102-34.093-2.527-41.635-36.071-41.839c-56.812-0.345-113.622-0.655-170.422,0.059
	C168.174,8.807,93.091,61.824,62.524,145.808c-30.337,83.357-6.808,174.259,60.849,233.596c5.518,4.841,20.939,15.434,27.385,19.223
	c-3.833,0.262-9.448-0.093-13.92,0.197c-15.766,0-31.657,0.328-47.203,0.597c-0.459,0.007-0.942,0.029-1.412,0.042H50.361v30.006
	h51.258v-0.07c45.458,0.036,91.114,0.574,139.077,0.574c0,36.42,0,68.14,0,99.859c0,31.338,0,62.682,0,93.313
	c97.019,9.097,184.508-48.521,215.75-138.08C492.189,382.584,452.787,288.205,342.498,218.165z M274.1,40.019
	c54.25,0,106.326,0,158.45,0c8.558,71.695-81.811,165.735-158.101,161.139c-0.699-5.507-0.232-13.731-0.255-19.468
	C274.029,135.18,274.1,88.669,274.1,40.019z M399.227,306.485c-79.073,7.389-149.785-6.052-201.245-73.115
	C286.926,223.101,337.797,224.89,399.227,306.485z M240.521,42.01c0.83,6.588,0.152,13.519,0.188,20.218
	c0.209,45.563,0.104,91.133,0.104,139.329c-55.803,0-106.061,0-156.276,0C83.292,122.658,158.611,46.792,240.521,42.01z
	 M274.742,593.098c0-53.103,0-105.963,0-160.903c52.498,0,104.783,0,159.083,0C434.524,511.256,364.139,582.659,274.742,593.098z
	 M209.859,390.103C138.446,378.68,86.122,306.847,83.196,234.539c21.212,0,52.798-2.159,71.521-2.159
	c3.992,5.986,5.489,9.76,9.526,16.045c48.592,67.217,113.891,94.583,195.535,90.748c5.963-0.281,11.963-0.035,17.937-0.035
	c51.492,0.012,53.816,2.279,57.29,62.61C359.464,398.487,283.442,401.876,209.859,390.103z"/>
<circle fill-rule="evenodd" clip-rule="evenodd" cx="194.211" cy="98.964" r="16.463"/>
</svg>
